<?xml version="1.0" encoding="UTF-8"?>
<svg width="66px" height="30px" viewBox="0 0 66 30" version="1.1" xmlns="http://www.w3.org/2000/svg" xmlns:xlink="http://www.w3.org/1999/xlink">
    <title>编组 87</title>
    <g id="页面-1" stroke="none" stroke-width="1" fill='#006eff' fill-rule="evenodd">
        <g id="Apple-TV" transform="translate(-48.000000, -32.000000)">
            <g id="编组-85" transform="translate(48.000000, 32.000000)">
                <rect id="矩形" fill="##006eff" opacity="0" x="0" y="0" width="107.357513" height="29.015544"></rect>
                <g id="编组-84" transform="translate(0.000000, 0.806289)">
                    <g id="编组备份-6" transform="translate(0.000000, 0.594461)">
                        <path d="M36.9265637,0 L36.1147287,3.81541272 L27.2640741,3.81502785 L25.8027723,10.6829555 L34.2537436,10.6831516 L33.4419097,14.4985592 L24.991044,14.4981741 L23.413563,21.9124684 L32.4555284,21.9126642 L31.6439071,25.7280686 L17.8974078,25.7280686 L23.3712837,0 L36.9265637,0 Z M48.5465467,3.12638804e-13 L54.0204226,25.7280686 L49.1241559,25.7280686 L44.8552099,4.92798277 L40.586456,25.7280686 L35.690188,25.7280686 L41.1640639,3.12638804e-13 L48.5465467,3.12638804e-13 Z M13.3411574,7.33635375e-13 L7.8672815,25.7280686 L3.16292648,25.7280686 L8.63680235,7.33635375e-13 L13.3411574,7.33635375e-13 Z M20.6673702,4.68070027e-13 L17.8345581,7.93147304 L14.2284797,7.93147304 L15.9281669,4.68070027e-13 L20.6673702,4.68070027e-13 Z" id="形状结合" fill="##006eff"></path>
                        <polygon id="路径" fill="#006EFF" fill-rule="nonzero" points="6.44828519 0 3.6154731 7.93147304 0.00939470424 7.93147304 1.70908196 0"></polygon>
                    </g>
                </g>
            </g>
        </g>
    </g>
</svg>